<?xml version="1.0" encoding="UTF-8"?>
<svg width="1200pt" height="1200pt" version="1.1" viewBox="0 0 1200 1200" xmlns="http://www.w3.org/2000/svg">
 <path d="m751.73 279.9c-0.52734-5.7734-1.7266-11.398-1.7266-17.398 0-103.35 84.074-187.5 187.5-187.5s187.5 84.148 187.5 187.5c0 103.43-84.074 187.5-187.5 187.5-6 0-11.551-1.1992-17.398-1.7266l-39.074 70.352c18.223 3.9766 36.973 6.375 56.473 6.375 145.05 0 262.5-117.45 262.5-262.5 0-144.98-117.45-262.5-262.5-262.5s-262.5 117.52-262.5 262.5c0 19.426 2.3984 38.25 6.4492 56.477z"/>
 <path d="m262.5 525c19.426 0 38.25-2.3984 56.477-6.4492l-39.078-70.277c-5.8477 0.52734-11.398 1.7266-17.398 1.7266-103.35 0-187.5-84.074-187.5-187.5 0-103.35 84.148-187.5 187.5-187.5s187.5 84.148 187.5 187.5c0 6-1.1992 11.551-1.7266 17.398l70.352 39.074c3.9766-18.223 6.375-37.047 6.375-56.473 0-144.98-117.45-262.5-262.5-262.5s-262.5 117.52-262.5 262.5c0 145.05 117.45 262.5 262.5 262.5z"/>
 <path d="m937.5 675c-19.5 0-38.25 2.4766-56.477 6.4492l39.074 70.352c5.8516-0.60156 11.477-1.8008 17.402-1.8008 103.43 0 187.5 84.074 187.5 187.5s-84.074 187.5-187.5 187.5-187.5-84.074-187.5-187.5c0-5.9258 1.1992-11.551 1.7266-17.398l-70.352-39.074c-3.9766 18.223-6.375 37.047-6.375 56.473 0 145.05 117.45 262.5 262.5 262.5s262.5-117.45 262.5-262.5-117.45-262.5-262.5-262.5z"/>
 <path d="m448.27 920.1c0.52734 5.8477 1.7266 11.473 1.7266 17.398 0 103.43-84.148 187.5-187.5 187.5s-187.5-84.074-187.5-187.5 84.148-187.5 187.5-187.5c6 0 11.551 1.2734 17.398 1.7266l39.074-70.352c-18.223-3.9766-37.047-6.375-56.473-6.375-145.05 0-262.5 117.45-262.5 262.5s117.45 262.5 262.5 262.5 262.5-117.45 262.5-262.5c0-19.426-2.3984-38.25-6.4492-56.477z"/>
 <path d="m857.18 978.68c-13.273 21.148-24.602 44.398-32.176 71.25 33.602-9.4492 61.5-24.676 86.773-42.602 18.602-13.273 35.926-27.75 52.199-43.352 15.449-16.199 29.773-33.375 42.977-51.824 18-25.352 33.375-53.324 42.977-87.148-26.926 7.6484-50.102 18.977-71.324 32.324-21.824 13.648-41.398 29.625-59.852 46.648l-168.75-303.97 168.82-303.9c18.449 17.102 38.023 33.074 59.852 46.727 21.223 13.273 44.398 24.598 71.324 32.172-9.5234-33.898-24.898-61.875-42.898-87.227-13.199-18.449-27.602-35.699-43.051-51.75-16.352-15.523-33.602-30.074-52.273-43.273-25.277-17.926-53.176-33.227-86.777-42.75 7.6484 26.852 18.977 50.023 32.324 71.324 13.648 21.824 29.625 41.398 46.648 59.852l-303.97 168.82-303.98-168.82c17.176-18.449 33.074-37.949 46.801-59.852 13.277-21.223 24.527-44.398 32.176-71.324-33.676 9.4492-61.648 24.75-86.852 42.602-18.602 13.273-35.926 27.75-52.125 43.352-15.523 16.195-29.848 33.445-43.047 51.898-18 25.348-33.375 53.398-42.977 87.148 26.852-7.6484 50.023-18.977 71.25-32.324 21.824-13.648 41.398-29.625 59.852-46.648l168.9 303.97-168.82 303.98c-18.449-17.102-38.023-33-59.852-46.648-21.301-13.352-44.473-24.68-71.324-32.328 9.6016 33.75 24.977 61.801 42.977 87.148 13.125 18.449 27.602 35.699 42.977 51.824 16.273 15.602 33.523 30.074 52.199 43.352 25.273 17.926 53.172 33.152 86.848 42.676-7.5742-26.926-18.898-50.102-32.176-71.324-13.648-21.824-29.625-41.398-46.727-59.852l303.9-168.82 303.9 168.82c-17.098 18.375-33.074 38.027-46.723 59.852z"/>
</svg>
